<?xml version="1.0" encoding="utf-8"?>
<svg width="128px" height="128.00012px" viewBox="0 0 128 128.00012" version="1.1"
     xmlns:xlink="http://www.w3.org/1999/xlink" xmlns="http://www.w3.org/2000/svg">
    <defs>
        <linearGradient gradientUnits="userSpaceOnUse" x1="4.358197" y1="7.855628" x2="4.5013933" y2="8.002425"
                        id="gradient_1">
            <stop offset="0%" stop-color="#26AB42"/>
            <stop offset="100%" stop-color="#0F6120"/>
        </linearGradient>
        <path d="M0 64.0002C5.4162e-05 28.654 28.6538 0.00011374 64.0002 0C99.3466 9.20754e-05 128 28.654 128 64C128 99.3466 99.3468 128.001 64.0003 128C28.654 128.001 0.00011374 99.3467 0 64.0002Z"
              id="path_1"/>
        <clipPath id="mask_1">
            <use xlink:href="#path_1"/>
        </clipPath>
    </defs>
    <g id="ManguiLogo">
        <g id="ManguiLogo">
            <g id="Background">
                <path d="M0 64.0002C5.4162e-05 28.654 28.6538 0.00011374 64.0002 0C99.3466 9.20754e-05 128 28.654 128 64C128 99.3466 99.3468 128.001 64.0003 128C28.654 128.001 0.00011374 99.3467 0 64.0002Z"
                      id="Background" fill="#FFC219" fill-rule="evenodd" stroke="none"/>
                <g clip-path="url(#mask_1)">
                    <path d="M110.202 19.5533L201.361 110.712L110.704 201.369L19.5451 110.21L110.202 19.5533Z"
                          id="Rechteck" fill="#FFA10B" fill-rule="evenodd" stroke="none"/>
                </g>
            </g>
            <g id="WholeFruit" transform="translate(28.650578 17.03131)">
                <g id="Fruit">
                    <path d="M52.6578 9.53674e-06L60.4538 4.50149L52.4519 18.3623L44.656 13.8608L52.6578 9.53674e-06Z"
                          id="Rechteck" fill="url(#gradient_1)" fill-rule="evenodd" stroke="none"/>
                    <path d="M16.0115 34.5508C16.0115 22.1154 26.0924 12.0346 38.5277 12.0346C50.9631 12.0346 61.044 22.1154 61.044 34.5508C61.044 46.9862 50.9631 57.067 38.5277 57.067C26.0924 57.067 16.0115 46.9862 16.0115 34.5508Z"
                          id="Kreis-2" fill="#FB8429" fill-rule="evenodd" stroke="none"/>
                    <path d="M0 75.5803C0 68.6718 5.60048 63.0713 12.509 63.0713C19.4176 63.0713 25.018 68.6718 25.018 75.5803C25.018 82.4889 19.4176 88.0893 12.509 88.0893C5.60048 88.0893 0 82.4889 0 75.5803Z"
                          id="Kreis-3" fill="#FB8429" fill-rule="evenodd" stroke="none"/>
                    <path d="M60.0433 38.0533C60.0433 38.0533 57.9919 83.5911 13.0093 87.5891" id="Vektor" fill="none"
                          fill-rule="evenodd" stroke="#FB8429" stroke-width="1"/>
                    <path d="M17.0123 39.054C17.0123 39.054 18.1634 54.2299 4.00279 67.0742" id="Vektor-2" fill="none"
                          fill-rule="evenodd" stroke="#FB8429" stroke-width="1"/>
                    <path d="M17.28 41.9743C17.28 41.9743 15.7672 49.5474 13.5156 54.6761C11.2639 59.8048 7.27358 64.1608 7.27358 64.1608L20.5148 66.5738L25.0181 77.0814L19.0136 86.0879C19.0136 86.0879 24.7678 84.7119 29.5212 83.0857C34.2746 81.4595 37.5269 79.0828 37.5269 79.0828C37.5269 79.0828 39.8513 76.4559 42.3531 74.5796C44.8549 72.7032 47.5342 69.0756 47.5342 69.0756C47.5342 69.0756 50.5363 65.6982 52.5378 62.0706C54.5393 58.443 55.0396 56.0663 55.0396 56.0663L59.0424 44.0576C59.0424 44.0576 52.8891 50.2825 47.6353 53.5348C42.3816 56.7871 43.0033 57.1557 38.0274 57.067C33.0515 56.9783 33.1472 56.4757 29.2694 54.7245C25.3916 52.9732 22.9322 49.958 22.9322 49.958L17.28 41.9743Z"
                          id="Vektor-3" fill="#FB8429" fill-rule="evenodd" stroke="none"/>
                    <path d="M49.2857 14.7606C49.2857 14.7606 44.8293 35.8356 34.3332 53.5889C23.8372 71.3421 7.17628 86.8619 7.17628 86.8619L8.12173 87.2837C8.54525 87.4418 9.46993 87.7285 10.2318 87.8741C11.0328 88.0271 12.1687 88.0761 13.0831 88.0429L14.464 87.9571C14.464 87.9571 15.5042 87.7957 16.6781 87.6294C17.852 87.4634 18.9969 87.255 18.9969 87.255L20.5214 86.9741C22.6143 86.5158 24.9595 85.9088 26.5574 85.3277C30.6854 83.8266 32.6767 82.8064 32.6767 82.8064C32.6767 82.8064 39.4298 79.3933 43.3076 75.5156C44.9166 73.9067 46.9959 71.8433 48.2928 70.1918L52.0145 64.9232C52.0145 64.9232 54.979 59.8308 57.2307 53.5763C59.4824 47.3217 60.388 40.0233 60.388 40.0233C60.388 40.0233 60.6689 34.775 60.0434 30.522C59.418 26.2689 57.5417 23.5169 57.5417 23.5169C57.5417 23.5169 56.7597 20.9915 54.6332 18.865C52.5066 16.7384 53.2236 17.4249 51.8868 16.3988C50.5499 15.3728 49.2857 14.7606 49.2857 14.7606Z"
                          id="Vektor" fill="#FF630F" fill-rule="evenodd" stroke="none"/>
                </g>
                <g id="Leaf" transform="translate(55.639893 10.007172)">
                    <path d="M1.38528 0.011208C1.38528 0.011208 21.8539 15.7913 15.0372 44.0316" id="Vektor-4"
                          fill="#0F6120" fill-rule="evenodd" stroke="none"/>
                    <path d="M15.0372 44.0074C14.9199 44.0465 -5.41972 28.2404 1.39692 -7.62939e-06" id="Vektor-5"
                          fill="#26AB42" fill-rule="evenodd" stroke="none"/>
                    <path d="M2.02783 1.00075L15.0372 43.031" id="Vektor" fill="#26AB42" fill-rule="evenodd"
                          stroke="none"/>
                </g>
            </g>
        </g>
    </g>
</svg>